<?xml version="1.0" encoding="utf-8"?>
<!-- Generator: Adobe Illustrator 18.1.1, SVG Export Plug-In . SVG Version: 6.00 Build 0)  -->
<svg version="1.1" id="Layer_1" xmlns="http://www.w3.org/2000/svg" xmlns:xlink="http://www.w3.org/1999/xlink" x="0px" y="0px"
	 viewBox="0 0 144 144" enable-background="new 0 0 144 144" xml:space="preserve">
<g>
	<path fill="#3F5167" d="M78.6,62.3c-1.8,0.9-2.6,3.1-1.7,4.9c0.6,1.3,1.9,2.1,3.3,2.1c0.5,0,1.1-0.1,1.6-0.4
		c1.8-0.9,2.6-3.1,1.7-4.9C82.6,62.2,80.4,61.4,78.6,62.3z"/>
	<path fill="#3F5167" d="M71.4,54.4c-2-0.4-3.9,0.8-4.4,2.8c-0.4,2,0.8,3.9,2.8,4.4c0.3,0.1,0.5,0.1,0.8,0.1c1.7,0,3.2-1.2,3.6-2.9
		C74.6,56.8,73.3,54.8,71.4,54.4z"/>
	<path fill="#3F5167" d="M56.8,71.8L56.8,71.8L56.8,71.8c0-2.1-1.6-3.7-3.7-3.7c-2,0-3.6,1.6-3.7,3.6l0,0l0,0c0,0,0,0,0,0.1
		c0,2,1.6,3.6,3.7,3.6l0,0C55.2,75.5,56.9,73.9,56.8,71.8z"/>
	<path fill="#3F5167" d="M72,20.5c-28.4,0-51.5,23-51.5,51.5s23.1,51.5,51.5,51.5c28.5,0,51.5-23,51.5-51.5S100.5,20.5,72,20.5z
		 M91.9,71.4c0,2.8-2.3,4.7-5.1,4.7c-0.1,0-13.6,0-13.6,0c-2.7,0-4.9,2.2-4.9,4.9c0,2.7,2.2,4.9,4.9,4.9H79c0,0,0,0,0.1,0
		c1.3,0,2.5,1,2.3,2.3c-0.4,2-2.1,3.4-2.1,3.4c-2.2,1.9-4.7,4.9-11.7,4.9C54,96.4,43.1,85.5,43.1,72S54,47.6,67.5,47.6
		C80.7,47.6,91.4,58,91.9,71V71.4z M99,94.6c-0.8,0-1.4-9.7-1.4-21.6c0-6.2,0.2-10.8,0.5-14.8c0.3,0.1,0.6,0.2,1,0.2
		c0.3,0,0.7-0.1,1-0.2c0.3,3.9,0.5,8.5,0.5,14.8C100.4,85,99.7,94.6,99,94.6z M97.1,54.5c-0.3-2.6,1.6-4.1,2.7-5.1
		c-1.1,2,1,2.2,1.1,5.1C101,57.4,97.4,57.8,97.1,54.5z"/>
	<path fill="#3F5167" d="M60.9,80.1c-1.6-1.3-3.9-1-5.1,0.6c-1.3,1.6-1,3.9,0.6,5.1c0.7,0.5,1.5,0.8,2.3,0.8c1.1,0,2.1-0.5,2.9-1.4
		C62.7,83.6,62.4,81.3,60.9,80.1z"/>
	<path fill="#3F5167" d="M58.5,64.4c0.8,0,1.6-0.3,2.3-0.8c1.6-1.3,1.8-3.6,0.6-5.1c-1.3-1.6-3.6-1.8-5.1-0.6
		c-1.6,1.3-1.8,3.6-0.6,5.1C56.4,63.9,57.5,64.4,58.5,64.4z"/>
</g>
</svg>
