<?xml version="1.0" encoding="utf-8"?>
<!-- Generator: Adobe Illustrator 18.1.1, SVG Export Plug-In . SVG Version: 6.00 Build 0)  -->
<svg version="1.1" id="Layer_1" xmlns="http://www.w3.org/2000/svg" xmlns:xlink="http://www.w3.org/1999/xlink" x="0px" y="0px"
	 viewBox="0 0 144 144" enable-background="new 0 0 144 144" xml:space="preserve">
<g>
	<path fill="#405267" d="M62.5,75.2H51.8c0.9,5.4,3.9,10.2,8.1,13.3l5.1-8.9C63.9,78.4,63,76.9,62.5,75.2z"/>
	<path fill="#405267" d="M72,62.8c0.9,0,1.7,0.1,2.5,0.3l5.7-9.9c-2.5-1.1-5.3-1.7-8.2-1.7s-5.7,0.6-8.2,1.7l5.7,9.9
		C70.3,63,71.1,62.8,72,62.8z"/>
	<path fill="#405267" d="M65.1,65.7l-5.7-9.8c-4.3,3.4-7.2,8.4-7.8,14.2h10.9C63,68.4,63.9,66.9,65.1,65.7z"/>
	<path fill="#405267" d="M72,82.5c-0.9,0-1.7-0.1-2.5-0.3L64.4,91c2.4,1,4.9,1.5,7.6,1.5s5.3-0.5,7.6-1.5l-5.1-8.8
		C73.7,82.3,72.9,82.5,72,82.5z"/>
	<path fill="#405267" d="M78.2,71.3C78.2,71.3,78.2,71.3,78.2,71.3c-0.1-0.4-0.2-0.8-0.4-1.2c-0.2-0.5-0.4-0.9-0.7-1.3
		c-0.1-0.2-0.3-0.3-0.4-0.5c0,0,0,0,0,0c-0.1-0.2-0.3-0.3-0.4-0.4c0,0,0,0,0,0c-0.2-0.1-0.3-0.3-0.5-0.4c0,0,0,0,0,0
		c-0.2-0.1-0.3-0.2-0.5-0.3c0,0,0,0-0.1,0c-0.2-0.1-0.3-0.2-0.5-0.3c0,0,0,0-0.1,0c-0.2-0.1-0.4-0.1-0.5-0.2c0,0,0,0-0.1,0
		c-0.2-0.1-0.4-0.1-0.6-0.2c0,0,0,0-0.1,0c-0.2,0-0.4-0.1-0.7-0.1c-0.2,0-0.5,0-0.7,0s-0.5,0-0.7,0c-0.2,0-0.4,0.1-0.7,0.1
		c0,0,0,0-0.1,0c-0.2,0-0.4,0.1-0.6,0.2c0,0,0,0-0.1,0c-0.2,0.1-0.4,0.1-0.5,0.2c0,0,0,0-0.1,0c-0.2,0.1-0.3,0.2-0.5,0.3
		c0,0,0,0-0.1,0c-0.2,0.1-0.3,0.2-0.5,0.3c0,0,0,0,0,0c-0.2,0.1-0.3,0.2-0.5,0.4c0,0,0,0,0,0c-0.2,0.1-0.3,0.3-0.4,0.4c0,0,0,0,0,0
		c-0.1,0.2-0.3,0.3-0.4,0.5c-0.3,0.4-0.5,0.8-0.7,1.3c-0.2,0.4-0.3,0.8-0.4,1.2c0,0,0,0,0,0c0,0.2-0.1,0.4-0.1,0.6c0,0,0,0.1,0,0.1
		c0,0.2,0,0.4,0,0.7c0,0.2,0,0.4,0,0.7c0,0,0,0.1,0,0.1c0,0.2,0.1,0.4,0.1,0.6c0,0,0,0,0,0c0.1,0.4,0.2,0.8,0.4,1.2
		c0.2,0.5,0.4,0.9,0.7,1.3c0.1,0.2,0.3,0.3,0.4,0.5c0,0,0,0,0,0c0.1,0.2,0.3,0.3,0.4,0.4c0,0,0,0,0,0c0.2,0.1,0.3,0.3,0.5,0.4
		c0,0,0,0,0,0c0.2,0.1,0.3,0.2,0.5,0.3c0,0,0,0,0.1,0c0.2,0.1,0.3,0.2,0.5,0.3c0,0,0,0,0.1,0c0.2,0.1,0.4,0.1,0.5,0.2c0,0,0,0,0.1,0
		c0.2,0.1,0.4,0.1,0.6,0.2c0,0,0,0,0.1,0c0.2,0,0.4,0.1,0.7,0.1c0.2,0,0.5,0,0.7,0s0.5,0,0.7,0c0.2,0,0.4-0.1,0.7-0.1c0,0,0,0,0.1,0
		c0.2,0,0.4-0.1,0.6-0.2c0,0,0,0,0.1,0c0.2-0.1,0.4-0.1,0.5-0.2c0,0,0,0,0.1,0c0.2-0.1,0.3-0.2,0.5-0.3c0,0,0,0,0.1,0
		c0.2-0.1,0.3-0.2,0.5-0.3c0,0,0,0,0,0c0.2-0.1,0.3-0.2,0.5-0.4c0,0,0,0,0,0c0.2-0.1,0.3-0.3,0.4-0.4c0,0,0,0,0,0
		c0.1-0.2,0.3-0.3,0.4-0.5c0.3-0.4,0.5-0.8,0.7-1.3c0.2-0.4,0.3-0.8,0.4-1.2c0,0,0,0,0,0c0-0.2,0.1-0.4,0.1-0.6c0,0,0-0.1,0-0.1
		c0-0.2,0-0.4,0-0.7c0-0.2,0-0.4,0-0.7c0,0,0-0.1,0-0.1C78.3,71.7,78.3,71.5,78.2,71.3z"/>
	<path fill="#405267" d="M78.9,79.6l5.1,8.9c4.3-3.1,7.3-7.9,8.1-13.3H81.5C81,76.9,80.1,78.4,78.9,79.6z"/>
	<path fill="#405267" d="M72,20.5c-28.4,0-51.5,23-51.5,51.5s23.1,51.5,51.5,51.5c28.5,0,51.5-23,51.5-51.5S100.5,20.5,72,20.5z
		 M107.1,76.6l-7.5,0.7c-0.1,0.3-0.1,0.5-0.2,0.8c0,0.2-0.1,0.3-0.1,0.5c-0.1,0.2-0.1,0.5-0.2,0.7c-0.1,0.2-0.1,0.4-0.2,0.6
		c-0.1,0.2-0.1,0.3-0.2,0.5c-0.1,0.3-0.2,0.5-0.3,0.8c0,0.1-0.1,0.2-0.1,0.2l5.9,4.7l-4.3,7.4l-6.9-3.1c-0.2,0.2-0.3,0.4-0.5,0.6
		c-0.1,0.1-0.2,0.2-0.3,0.3c0,0,0,0,0,0c0,0,0,0,0,0c-0.2,0.2-0.3,0.3-0.5,0.5c-0.1,0.1-0.2,0.2-0.4,0.4c0,0,0,0,0,0
		c0,0-0.1,0.1-0.1,0.1c-0.1,0.1-0.2,0.2-0.4,0.3c-0.1,0.1-0.3,0.2-0.4,0.4c0,0,0,0,0,0c-0.1,0.1-0.2,0.1-0.3,0.2
		c-0.1,0-0.1,0.1-0.1,0.1l2.8,7l-7.4,4.3l-4.4-6.1c-0.2,0.1-0.5,0.2-0.7,0.2c-0.1,0-0.3,0.1-0.4,0.1c0,0,0,0,0,0c0,0,0,0,0,0
		c-0.2,0.1-0.4,0.1-0.7,0.2c-0.2,0-0.3,0.1-0.5,0.1c0,0,0,0,0,0c-0.1,0-0.1,0-0.2,0c-0.2,0-0.3,0.1-0.5,0.1c-0.2,0-0.3,0.1-0.5,0.1
		c0,0,0,0,0,0c-0.1,0-0.2,0-0.3,0.1c-0.1,0-0.1,0-0.2,0l-1.1,7.4h-8.6l-0.7-7.5c-0.1,0-0.1,0-0.2,0c0,0,0,0,0,0
		c-0.2,0-0.3-0.1-0.5-0.1c-0.2,0-0.3-0.1-0.5-0.1c0,0,0,0,0,0c0,0,0,0,0,0c-0.1,0-0.1,0-0.2,0c0,0,0,0,0,0c-0.2,0-0.3-0.1-0.5-0.1
		c-0.2,0-0.3-0.1-0.5-0.1c0,0,0,0,0,0c-0.1,0-0.1,0-0.2-0.1c0,0,0,0,0,0c0,0,0,0,0,0c-0.1,0-0.3-0.1-0.4-0.1
		c-0.2-0.1-0.3-0.1-0.5-0.2c0,0,0,0,0,0c-0.1,0-0.1,0-0.2-0.1l-4.4,6.1l-7.4-4.3l2.8-7c-0.1,0-0.1-0.1-0.2-0.1
		c-0.1-0.1-0.2-0.1-0.3-0.2c0,0,0,0,0,0c-0.1-0.1-0.3-0.2-0.4-0.4c-0.1-0.1-0.2-0.2-0.4-0.3c0,0-0.1-0.1-0.1-0.1c0,0,0,0,0,0
		c-0.1-0.1-0.2-0.2-0.4-0.4c-0.2-0.2-0.3-0.3-0.5-0.5c0,0,0,0,0,0c0,0,0,0,0,0c-0.1-0.1-0.2-0.2-0.3-0.3c-0.2-0.2-0.3-0.4-0.5-0.6
		l-6.9,3.1l-4.3-7.4l5.9-4.7c0-0.1,0-0.1-0.1-0.2c0-0.1-0.1-0.2-0.1-0.3c0,0,0,0,0,0c-0.1-0.2-0.1-0.3-0.2-0.5
		c0-0.2-0.1-0.3-0.1-0.5c0-0.1,0-0.1-0.1-0.2c0,0,0,0,0,0c0-0.2-0.1-0.3-0.1-0.5c-0.1-0.2-0.1-0.4-0.2-0.7c0,0,0,0,0,0c0,0,0,0,0,0
		c0-0.2-0.1-0.3-0.1-0.5c-0.1-0.2-0.1-0.5-0.2-0.8l-7.5-0.7v-8.6l7.4-1.1c0-0.1,0-0.2,0-0.2c0.1-0.3,0.1-0.5,0.2-0.8
		c0-0.2,0.1-0.3,0.1-0.5c0.1-0.2,0.1-0.4,0.2-0.6c0.1-0.2,0.1-0.5,0.2-0.7c0-0.2,0.1-0.3,0.1-0.5c0.1-0.3,0.2-0.5,0.3-0.8l-6.1-4.4
		l4.3-7.4l7,2.8c0.1-0.1,0.1-0.1,0.2-0.2c0.2-0.2,0.4-0.4,0.5-0.6c0.1-0.1,0.2-0.3,0.4-0.4c0.2-0.2,0.3-0.3,0.5-0.5
		c0.2-0.2,0.3-0.3,0.5-0.5c0.1-0.1,0.3-0.2,0.4-0.4c0.2-0.2,0.4-0.3,0.6-0.5l-3.1-6.9l7.4-4.3l4.7,5.9c0.1,0,0.2-0.1,0.3-0.1
		c0.3-0.1,0.5-0.2,0.8-0.3c0.2-0.1,0.3-0.1,0.5-0.2c0.2-0.1,0.4-0.1,0.6-0.2c0.2-0.1,0.4-0.1,0.7-0.2c0.2,0,0.3-0.1,0.5-0.1
		c0.2-0.1,0.5-0.1,0.7-0.2l0.7-7.5h8.6l1.1,7.4c0.1,0,0.2,0,0.3,0.1c0.3,0.1,0.5,0.1,0.8,0.2c0.2,0,0.3,0.1,0.5,0.1
		c0.2,0.1,0.4,0.1,0.7,0.2c0.2,0.1,0.4,0.1,0.6,0.2c0.2,0,0.3,0.1,0.5,0.2c0.3,0.1,0.5,0.2,0.8,0.3c0.1,0,0.2,0.1,0.3,0.1l4.7-5.9
		l7.4,4.3l-3.1,6.9c0.2,0.2,0.4,0.3,0.6,0.5c0.1,0.1,0.3,0.2,0.4,0.4c0.2,0.2,0.3,0.3,0.5,0.5c0.2,0.2,0.3,0.3,0.5,0.5
		c0.1,0.1,0.2,0.3,0.4,0.4c0.2,0.2,0.4,0.4,0.5,0.6c0.1,0.1,0.1,0.1,0.2,0.2l7-2.8l4.3,7.4l-6.1,4.4c0.1,0.2,0.2,0.5,0.2,0.7
		c0.1,0.2,0.1,0.3,0.2,0.5c0.1,0.2,0.1,0.4,0.2,0.6c0.1,0.2,0.1,0.4,0.2,0.6c0,0.2,0.1,0.3,0.1,0.5c0.1,0.3,0.1,0.5,0.2,0.8
		c0,0.1,0,0.2,0.1,0.3l7.4,1.1V76.6z"/>
	<path fill="#405267" d="M84.6,55.9l-5.7,9.8c1.2,1.2,2.1,2.7,2.5,4.4h10.9C91.8,64.4,88.9,59.3,84.6,55.9z"/>
</g>
</svg>
