<?xml version="1.0" encoding="utf-8"?>
<!-- Generator: Adobe Illustrator 18.1.1, SVG Export Plug-In . SVG Version: 6.00 Build 0)  -->
<svg version="1.1" id="Layer_1" xmlns="http://www.w3.org/2000/svg" xmlns:xlink="http://www.w3.org/1999/xlink" x="0px" y="0px"
	 viewBox="0 0 144 144" enable-background="new 0 0 144 144" xml:space="preserve">
<g>
	<path fill="#3F5167" d="M71.9,81.6c5.4,0,9.8-4.4,9.8-9.8c0-2.1-0.7-4.1-1.9-5.7c-1.8-2.5-4.7-4.1-7.9-4.1c-3.3,0-6.2,1.6-7.9,4.1
		c-1.2,1.6-1.9,3.6-1.9,5.7C62,77.3,66.4,81.6,71.9,81.6z"/>
	<polygon fill="#3F5167" points="93.3,59.9 93.3,51.7 93.3,50.4 92,50.4 83.8,50.5 83.8,59.9 	"/>
	<path fill="#3F5167" d="M71.9,0L0,71.9l71.9,71.8l71.9-71.8L71.9,0z M99.7,88.9c0,5.9-4.8,10.8-10.8,10.8H54.8
		c-5.9,0-10.8-4.8-10.8-10.8V66.1V54.8C44,48.8,48.8,44,54.8,44h34.2c5.9,0,10.8,4.8,10.8,10.8v11.4V88.9z"/>
	<path fill="#3F5167" d="M87.1,71.9c0,8.4-6.8,15.2-15.2,15.2c-8.4,0-15.2-6.8-15.2-15.2c0-2,0.4-3.9,1.1-5.7h-8.3v22.8
		c0,2.9,2.4,5.3,5.3,5.3h34.2c2.9,0,5.3-2.4,5.3-5.3V66.1H86C86.7,67.9,87.1,69.8,87.1,71.9z"/>
</g>
</svg>
