<?xml version="1.0" encoding="utf-8"?>
<!-- Generator: Adobe Illustrator 18.1.1, SVG Export Plug-In . SVG Version: 6.00 Build 0)  -->
<svg version="1.1" id="Layer_1" xmlns="http://www.w3.org/2000/svg" xmlns:xlink="http://www.w3.org/1999/xlink" x="0px" y="0px"
	 viewBox="0 0 144 144" enable-background="new 0 0 144 144" xml:space="preserve">
<path fill="#3F5167" d="M71.4,0L0,71.4l71.4,71.4l71.4-71.4L71.4,0z M57,94.9H45.9V59.1H57V94.9z M51.2,54.6L51.2,54.6
	c-4.1,0-6.7-2.7-6.7-6.2c0-3.5,2.7-6.2,6.8-6.2c4.1,0,6.6,2.7,6.7,6.2C58,51.9,55.4,54.6,51.2,54.6z M89,94.9V76.4
	c0-4.8-2-8.1-6.3-8.1c-3.3,0-5.2,2.2-6,4.4c-0.3,0.8-0.3,1.8-0.3,2.9v19.4H63.8c0,0,0.2-32.8,0-35.8h12.5v5.6c0.7-2.5,4.7-6,11.1-6
	c7.9,0,14.2,5.1,14.2,16.2v19.9H89z"/>
</svg>
