<?xml version="1.0" encoding="utf-8"?>
<!-- Generator: Adobe Illustrator 18.1.1, SVG Export Plug-In . SVG Version: 6.00 Build 0)  -->
<svg version="1.1" id="Layer_1" xmlns="http://www.w3.org/2000/svg" xmlns:xlink="http://www.w3.org/1999/xlink" x="0px" y="0px"
	 viewBox="0 0 144 144" enable-background="new 0 0 144 144" xml:space="preserve">
<path fill="#3F5167" d="M71.7,0L0,71.7l71.7,71.7l71.7-71.7L71.7,0z M71.7,102.8c-3.1,0-6-0.4-8.8-1.3c1.2-1.9,2.5-4.3,3.1-6.7
	c0.4-1.4,2.2-8.6,2.2-8.6c1.1,2.1,4.2,3.9,7.6,3.9c10,0,16.8-9.1,16.8-21.4c0-9.2-7.8-17.9-19.7-17.9c-14.8,0-22.2,10.6-22.2,19.5
	c0,5.4,2,10.1,6.4,11.9c0.7,0.3,1.3,0,1.6-0.8c0.1-0.5,0.5-1.9,0.6-2.5c0.2-0.8,0.1-1.1-0.4-1.7c-1.2-1.5-2-3.4-2-6.1
	c0-7.9,5.9-14.9,15.3-14.9c8.3,0,12.9,5.1,12.9,11.9c0,9-4,16.6-9.9,16.6c-3.3,0-5.7-2.7-4.9-6c0.9-3.9,2.7-8.2,2.7-11.1
	c0-2.5-1.4-4.7-4.2-4.7c-3.3,0-6,3.4-6,8.1c0,2.9,1,4.9,1,4.9s-3.4,14.5-4,17c-0.6,2.4-0.6,5-0.5,7.2c-11-4.8-18.6-15.8-18.6-28.5
	c0-17.2,13.9-31.2,31.1-31.2s31.1,13.9,31.1,31.2C102.8,88.9,88.9,102.8,71.7,102.8z"/>
</svg>
