<?xml version="1.0" encoding="utf-8"?>
<!-- Generator: Adobe Illustrator 18.1.1, SVG Export Plug-In . SVG Version: 6.00 Build 0)  -->
<svg version="1.1" id="Layer_1" xmlns="http://www.w3.org/2000/svg" xmlns:xlink="http://www.w3.org/1999/xlink" x="0px" y="0px"
	 viewBox="0 0 144 144" enable-background="new 0 0 144 144" xml:space="preserve">
<path fill="#3F5167" d="M71.6,0L0,71.6l71.6,71.6l71.6-71.6L71.6,0z M82.3,95.8c-1.9,0.5-4,0.7-6.2,0.7c-2.5,0-4.8-0.3-6.7-1
	c-1.9-0.6-3.6-1.6-5-2.7C63,91.6,62,90.4,61.5,89c-0.5-1.3-0.8-3.3-0.8-5.8V63.7h-6.1v-7.9c2.2-0.7,4.1-1.7,5.6-3.1
	c1.6-1.3,2.8-2.9,3.7-4.8c0.9-1.9,1.6-4.2,1.9-7.1h7.9v14h13.2v8.7H73.7V78c0,3.2,0.2,5.3,0.5,6.2c0.3,0.9,1,1.6,1.9,2.2
	c1.2,0.7,2.6,1.1,4.2,1.1c2.8,0,5.6-0.9,8.4-2.7v8.8C86.4,94.6,84.2,95.4,82.3,95.8z"/>
</svg>
