<?xml version="1.0" encoding="utf-8"?>
<!-- Generator: Adobe Illustrator 18.1.1, SVG Export Plug-In . SVG Version: 6.00 Build 0)  -->
<svg version="1.1" id="Layer_1" xmlns="http://www.w3.org/2000/svg" xmlns:xlink="http://www.w3.org/1999/xlink" x="0px" y="0px"
	 viewBox="0 0 288 288" enable-background="new 0 0 288 288" xml:space="preserve">
<g>
	<path fill="#F5F4BE" d="M155.6,119.5c0.3-0.3,0.5-0.8,0.5-1.2c0-3.8,0-7.6,0-11.5c0-0.3,0-0.5-0.1-0.8c-8.7,0-17.3,0-25.9,0
		c0,12.9,0,25.8,0,38.9c0.3-0.3,0.4-0.4,0.6-0.5C139.1,136.1,147.3,127.8,155.6,119.5z"/>
	<path fill="#F5F4BE" d="M130.2,184.1c8.7,0,17.3,0,25.8,0c0-13,0-25.9,0-38.8c-8.6,0-17.2,0-25.8,0
		C130.2,158.3,130.2,171.2,130.2,184.1z"/>
	<path fill="#F5F4BE" d="M143.2,41c-56.9,0-103,46.1-103,103s46.1,103,103,103s103-46.1,103-103S200.1,41,143.2,41z M182.5,119.3
		c-1.8,1.7-3.6,3.3-5.4,5.1c-6.7,6.6-13.3,13.3-19.9,19.9c-0.2,0.2-0.4,0.4-0.7,0.8c8.8,0,17.4,0,26,0c0,21.7,0,43.5,0,65.3
		c-26.1,0-52.3,0-78.4,0c0-26.2,0-52.4,0-78.6c0.1-0.1,0.3-0.2,0.4-0.3c8.3-8.3,16.6-16.6,24.9-24.9c0.1-0.1,0.2-0.3,0.5-0.5
		c-8.7,0-17.3,0-25.8,0c0-8.7,0-17.4,0-26.1c26.1,0,52.3,0,78.4,0C182.5,93,182.5,106.1,182.5,119.3z"/>
</g>
</svg>
