<?xml version="1.0" encoding="utf-8"?>
<!-- Generator: Adobe Illustrator 18.1.1, SVG Export Plug-In . SVG Version: 6.00 Build 0)  -->
<svg version="1.1" id="Layer_1" xmlns="http://www.w3.org/2000/svg" xmlns:xlink="http://www.w3.org/1999/xlink" x="0px" y="0px"
	 viewBox="0 0 288 288" enable-background="new 0 0 288 288" xml:space="preserve">
<g>
	<path fill="#F5F4BE" d="M170.7,141.1c-4.2-2.5-9.2-4-14.5-4c-11.9,0-22.1,7.3-26.3,17.6c3.3,1,6.9,1.5,10.5,1.5
		C152.7,156.2,163.7,150.3,170.7,141.1z"/>
	<path fill="#F5F4BE" d="M130.8,168.8c-1,0-2,0.1-2.9,0.2c1.5,13,11.9,23.4,24.9,24.9c0.1-1,0.2-2,0.2-3
		C153,178.7,143.1,168.8,130.8,168.8z"/>
	<path fill="#F5F4BE" d="M143.5,41c-56.9,0-103,46.1-103,103s46.1,103,103,103c56.9,0,103-46.1,103-103S200.4,41,143.5,41z
		 M156.2,194.1c-1.1,0-2.3-0.1-3.4-0.2c-1.5,10.8-10.7,19.2-22,19.2c-12.2,0-22.2-9.9-22.2-22.2c0-11.2,8.4-20.5,19.2-22
		c-0.1-1.1-0.2-2.2-0.2-3.4c0-3.9,0.8-7.5,2.2-10.9c-15.9-4.6-27.5-19.2-27.5-36.6c0-21,17-38,38-38c21,0,38,17,38,38
		c0,8.6-2.9,16.5-7.7,22.9c8.4,5,14,14.1,14,24.5C184.7,181.4,171.9,194.1,156.2,194.1z"/>
</g>
</svg>
