<?xml version="1.0" encoding="utf-8"?>
<!-- Generator: Adobe Illustrator 18.1.1, SVG Export Plug-In . SVG Version: 6.00 Build 0)  -->
<svg version="1.1" id="Layer_1" xmlns="http://www.w3.org/2000/svg" xmlns:xlink="http://www.w3.org/1999/xlink" x="0px" y="0px"
	 viewBox="0 0 288 288" enable-background="new 0 0 288 288" xml:space="preserve">
<g>
	<path fill="#F5F4BE" d="M93.4,130.5c-13.1-0.9-14.1,10-14.1,17.1c0,9,3.5,20.2,17.8,18.4c0,0-2.4-10.2,4.2-16.6
		C108.1,142.7,104.2,131.3,93.4,130.5z"/>
	<path fill="#F5F4BE" d="M143.5,41c-56.9,0-103,46.1-103,103s46.1,103,103,103s103-46.1,103-103S200.4,41,143.5,41z M196.1,137.8
		c-3.5,2.8-7.7,10-3.7,17c5.2,9,1.5,19.2-5.5,21.9c-10.5,4.1-9.8,10.5-9.8,10.5h-62.3c0-7.6-7.2-3.6-15.3-14.5
		c-18.8,3.1-27.2-9.6-27.2-24.9c0-17.7,8.4-24.5,20.8-24.5c12.4,0,11.7,8.3,18.4,8.3c6.7,0,5.9-7.8,5.9-7.8h-2.6v-5.1h5.4
		c3.9-8.2,11.6-14.2,20.8-15.8c-0.8-1-1.3-2.3-1.3-3.8c0-3.4,2.8-6.2,6.2-6.2c3.4,0,6.2,2.8,6.2,6.2c0,1.4-0.5,2.7-1.3,3.8
		c9.2,1.6,16.9,7.6,20.8,15.8h0.4h5.1v5.1c0,0-0.9,0-2.6,0c-1.2,1.2,1.4,10.2,4.2,9.5c2.7-0.7,16.1-10.9,16.1-10.9l16,1.7
		C210.7,124.1,199.6,134.9,196.1,137.8z"/>
</g>
</svg>
